<?xml version="1.0" encoding="UTF-8" standalone="no"?>
<!DOCTYPE svg PUBLIC "-//W3C//DTD SVG 20010904//EN"
              "http://www.w3.org/TR/2001/REC-SVG-20010904/DTD/svg10.dtd">

<svg xmlns="http://www.w3.org/2000/svg"
     width="4.72222in" height="2.25556in"
     viewBox="0 0 425 203">
  <path id="Path #1"
        fill="black" stroke="black" stroke-width="1" stroke-opacity="0"
        d="M 127.36,130.11
           C 127.36,82.10 97.30,57.20 65.72,57.20
             30.51,57.20 0.14,87.88 0.14,130.71
             0.14,172.94 29.90,202.70 64.81,202.70
             97.60,202.70 127.36,175.98 127.36,130.11 Z
           M 64.21,75.72
           C 84.24,75.72 105.49,93.34 105.49,131.32
             105.49,166.26 85.46,183.88 65.11,183.88
             42.95,183.88 23.22,163.22 23.22,128.89
             23.22,94.87 42.95,75.72 64.21,75.72 Z
           M 171.68,60.20
           C 171.68,60.20 171.68,78.12 171.68,78.12
             171.68,78.12 205.38,78.12 205.38,78.12
             205.38,78.12 205.38,181.79 205.38,181.79
             205.38,181.79 169.86,181.79 169.86,181.79
             169.86,181.79 169.86,199.40 169.86,199.40
             169.86,199.40 259.72,199.40 259.72,199.40
             259.72,199.40 259.72,181.79 259.72,181.79
             259.72,181.79 227.23,181.79 227.23,181.79
             227.23,181.79 227.23,60.20 227.23,60.20
             227.23,60.20 171.68,60.20 171.68,60.20 Z
           M 216.61,0.13
           C 207.81,0.13 201.13,7.42 201.13,15.92
             201.13,24.42 207.81,31.41 216.61,31.41
             225.42,31.41 232.40,24.42 232.40,15.92
             232.40,7.42 225.42,0.13 216.61,0.13 Z
           M 310.43,60.20
           C 310.43,60.20 310.12,137.69 310.12,137.69
             310.12,149.85 310.12,162.00 315.58,174.16
             323.78,192.38 340.48,202.40 358.70,202.40
             376.00,202.40 392.39,192.99 401.50,177.81
             401.50,177.81 401.20,188.43 401.20,188.43
             401.20,192.40 401.20,195.75 401.81,199.40
             401.81,199.40 424.88,199.40 424.88,199.40
             423.67,195.14 423.36,190.57 423.36,186.61
             423.36,186.61 423.36,60.20 423.36,60.20
             423.36,60.20 401.20,60.20 401.20,60.20
             401.20,60.20 401.20,136.66 401.20,136.66
             401.20,147.32 400.29,155.84 395.74,164.38
             389.36,175.68 377.22,184.79 363.86,184.79
             352.93,184.79 342.61,178.41 337.14,167.47
             332.28,157.75 332.28,147.11 332.28,137.69
             332.28,137.69 332.28,60.20 332.28,60.20
             332.28,60.20 310.43,60.20 310.43,60.20 Z" />
</svg>
